<svg width="20" height="20" viewBox="0 0 20 20" fill="none" xmlns="http://www.w3.org/2000/svg">
<path fill-rule="evenodd" clip-rule="evenodd" d="M5 0H15C17.7614 0 20 2.23858 20 5V15C20 17.7614 17.7614 20 15 20H5C2.23858 20 0 17.7614 0 15V5C0 2.23858 2.23858 0 5 0ZM8.66126 7.29417C9.22136 7.00354 9.85884 6.89693 10.483 6.98948C11.1197 7.0839 11.7092 7.38058 12.1643 7.83571C12.6194 8.29085 12.9161 8.88029 13.0105 9.51698C13.1031 10.1412 12.9965 10.7786 12.7058 11.3387C12.4152 11.8988 11.9554 12.353 11.3917 12.6367C10.8281 12.9204 10.1894 13.0192 9.56636 12.9189C8.94337 12.8187 8.36784 12.5245 7.92165 12.0784C7.47546 11.6322 7.18132 11.0566 7.08107 10.4336C6.98083 9.81065 7.07957 9.17191 7.36327 8.60827C7.64696 8.04463 8.10116 7.58479 8.66126 7.29417ZM10.7764 5.01112C9.73608 4.85685 8.67362 5.03455 7.74012 5.51892C6.80662 6.00329 6.04962 6.76969 5.5768 7.70909C5.10397 8.64849 4.93939 9.71306 5.10647 10.7514C5.27356 11.7897 5.76379 12.7489 6.50744 13.4926C7.25109 14.2362 8.2103 14.7265 9.24862 14.8935C10.287 15.0606 11.3515 14.896 12.2909 14.4232C13.2303 13.9504 13.9967 13.1934 14.4811 12.2599C14.9655 11.3264 15.1432 10.2639 14.9889 9.22362C14.8315 8.16247 14.3371 7.18006 13.5785 6.4215C12.82 5.66295 11.8375 5.16847 10.7764 5.01112Z" fill="white"/>
</svg>
