<svg width="20" height="20" viewBox="0 0 20 20" fill="none" xmlns="http://www.w3.org/2000/svg">
<path d="M19.8881 14.9562V17.9562C19.8893 18.2347 19.8322 18.5104 19.7206 18.7656C19.6091 19.0208 19.4454 19.2498 19.2402 19.4381C19.035 19.6264 18.7927 19.7697 18.5289 19.8589C18.265 19.9482 17.9855 19.9813 17.7081 19.9562C14.631 19.6219 11.6751 18.5704 9.07812 16.8862C6.66195 15.3509 4.61345 13.3024 3.07812 10.8862C1.3881 8.27743 0.33636 5.30722 0.00811671 2.21623C-0.0168728 1.9397 0.0159916 1.66099 0.104617 1.39785C0.193243 1.13472 0.335688 0.892919 0.522883 0.687851C0.710078 0.482783 0.937922 0.318939 1.19191 0.206752C1.44589 0.0945643 1.72046 0.0364912 1.99812 0.0362298H4.99812C5.48343 0.0314533 5.95391 0.203308 6.32188 0.519762C6.68985 0.836216 6.9302 1.27568 6.99812 1.75623C7.12474 2.7163 7.35957 3.65896 7.69812 4.56623C7.83266 4.92415 7.86178 5.31314 7.78203 5.68711C7.70227 6.06108 7.51698 6.40434 7.24812 6.67623L5.97812 7.94623C7.40167 10.4498 9.47457 12.5227 11.9781 13.9462L13.2481 12.6762C13.52 12.4074 13.8633 12.2221 14.2372 12.1423C14.6112 12.0626 15.0002 12.0917 15.3581 12.2262C16.2654 12.5648 17.2081 12.7996 18.1681 12.9262C18.6539 12.9948 19.0975 13.2394 19.4147 13.6137C19.7318 13.988 19.9003 14.4658 19.8881 14.9562Z" fill="#15B2F5"/>
</svg>
