<svg width="22" height="16" viewBox="0 0 22 16" fill="none" xmlns="http://www.w3.org/2000/svg">
<path fill-rule="evenodd" clip-rule="evenodd" d="M20.8392 1.15941C21.1799 1.51057 21.4218 1.94541 21.5406 2.42C21.8578 4.1787 22.0118 5.96295 22.0006 7.75C22.0069 9.51033 21.8529 11.2676 21.5406 13C21.4218 13.4746 21.1799 13.9094 20.8392 14.2606C20.4986 14.6118 20.0713 14.8668 19.6006 15C17.8806 15.46 11.0006 15.46 11.0006 15.46C11.0006 15.46 4.12057 15.46 2.40057 15C1.93939 14.8738 1.51855 14.6308 1.17872 14.2945C0.838878 13.9581 0.591531 13.5398 0.460572 13.08C0.143339 11.3213 -0.0106491 9.53704 0.000571645 7.75C-0.00819243 5.97631 0.145786 4.20556 0.460572 2.46C0.57936 1.98541 0.821288 1.55057 1.16192 1.19941C1.50255 0.84824 1.92982 0.593185 2.40057 0.46C4.12057 0 11.0006 0 11.0006 0C11.0006 0 17.8806 0 19.6006 0.42C20.0713 0.553185 20.4986 0.808241 20.8392 1.15941ZM14.5 7.74998L8.75 11.02V4.47998L14.5 7.74998Z" fill="white"/>
</svg>
