<svg width="143" height="25" viewBox="0 0 143 25" fill="none" xmlns="http://www.w3.org/2000/svg">
<path d="M34.1294 17.88V0H37.8494V7.728H44.8094V0H48.5294V17.88H44.8094V10.968H37.8494V17.88H34.1294Z" fill="white"/>
<path d="M57.9475 18.168C56.6515 18.168 55.4675 17.872 54.3955 17.28C53.3395 16.688 52.4915 15.88 51.8515 14.856C51.2275 13.816 50.9155 12.64 50.9155 11.328C50.9155 10 51.2275 8.824 51.8515 7.8C52.4915 6.776 53.3395 5.968 54.3955 5.376C55.4675 4.784 56.6515 4.488 57.9475 4.488C59.2435 4.488 60.4195 4.784 61.4755 5.376C62.5315 5.968 63.3715 6.776 63.9955 7.8C64.6355 8.824 64.9555 10 64.9555 11.328C64.9555 12.64 64.6355 13.816 63.9955 14.856C63.3715 15.88 62.5315 16.688 61.4755 17.28C60.4195 17.872 59.2435 18.168 57.9475 18.168ZM57.9475 14.928C58.6035 14.928 59.1715 14.776 59.6515 14.472C60.1475 14.168 60.5315 13.744 60.8035 13.2C61.0915 12.656 61.2355 12.032 61.2355 11.328C61.2355 10.624 61.0915 10.008 60.8035 9.48C60.5315 8.936 60.1475 8.512 59.6515 8.208C59.1715 7.888 58.6035 7.728 57.9475 7.728C57.2915 7.728 56.7155 7.888 56.2195 8.208C55.7235 8.512 55.3315 8.936 55.0435 9.48C54.7715 10.008 54.6355 10.624 54.6355 11.328C54.6355 12.032 54.7715 12.656 55.0435 13.2C55.3315 13.744 55.7235 14.168 56.2195 14.472C56.7155 14.776 57.2915 14.928 57.9475 14.928Z" fill="white"/>
<path d="M67.0763 17.88V4.776H70.4363V7.968L70.0763 7.44C70.2683 6.432 70.7323 5.688 71.4683 5.208C72.2043 4.728 73.0843 4.488 74.1083 4.488C75.1963 4.488 76.1483 4.768 76.9643 5.328C77.7963 5.872 78.3163 6.608 78.5243 7.536L77.4923 7.632C77.9243 6.56 78.5403 5.768 79.3403 5.256C80.1403 4.744 81.0763 4.488 82.1483 4.488C83.0923 4.488 83.9243 4.696 84.6443 5.112C85.3803 5.528 85.9563 6.112 86.3723 6.864C86.7883 7.6 86.9963 8.464 86.9963 9.456V17.88H83.3963V10.224C83.3963 9.712 83.3003 9.272 83.1083 8.904C82.9323 8.536 82.6763 8.248 82.3403 8.04C82.0043 7.832 81.5963 7.728 81.1163 7.728C80.6523 7.728 80.2443 7.832 79.8923 8.04C79.5563 8.248 79.2923 8.536 79.1003 8.904C78.9243 9.272 78.8363 9.712 78.8363 10.224V17.88H75.2363V10.224C75.2363 9.712 75.1403 9.272 74.9483 8.904C74.7723 8.536 74.5163 8.248 74.1803 8.04C73.8443 7.832 73.4363 7.728 72.9563 7.728C72.4923 7.728 72.0843 7.832 71.7323 8.04C71.3963 8.248 71.1323 8.536 70.9403 8.904C70.7643 9.272 70.6763 9.712 70.6763 10.224V17.88H67.0763Z" fill="white"/>
<path d="M95.6774 18.168C94.2854 18.168 93.0774 17.864 92.0534 17.256C91.0294 16.632 90.2374 15.8 89.6774 14.76C89.1174 13.72 88.8374 12.568 88.8374 11.304C88.8374 9.992 89.1254 8.824 89.7014 7.8C90.2934 6.776 91.0854 5.968 92.0774 5.376C93.0694 4.784 94.1894 4.488 95.4374 4.488C96.4774 4.488 97.3974 4.656 98.1974 4.992C98.9974 5.312 99.6694 5.768 100.213 6.36C100.773 6.952 101.197 7.64 101.485 8.424C101.773 9.192 101.917 10.032 101.917 10.944C101.917 11.2 101.901 11.456 101.869 11.712C101.853 11.952 101.813 12.16 101.749 12.336H91.9334V9.696H99.7094L98.0054 10.944C98.1654 10.256 98.1574 9.648 97.9814 9.12C97.8054 8.576 97.4934 8.152 97.0454 7.848C96.6134 7.528 96.0774 7.368 95.4374 7.368C94.8134 7.368 94.2774 7.52 93.8294 7.824C93.3814 8.128 93.0454 8.576 92.8214 9.168C92.5974 9.76 92.5094 10.48 92.5574 11.328C92.4934 12.064 92.5814 12.712 92.8214 13.272C93.0614 13.832 93.4294 14.272 93.9254 14.592C94.4214 14.896 95.0214 15.048 95.7254 15.048C96.3654 15.048 96.9094 14.92 97.3574 14.664C97.8214 14.408 98.1814 14.056 98.4374 13.608L101.317 14.976C101.061 15.616 100.653 16.176 100.093 16.656C99.5494 17.136 98.9014 17.512 98.1494 17.784C97.3974 18.04 96.5734 18.168 95.6774 18.168Z" fill="white"/>
<path d="M104.301 17.88V0H111.165C112.397 0 113.485 0.216 114.429 0.648C115.389 1.08 116.141 1.72 116.685 2.568C117.229 3.416 117.501 4.464 117.501 5.712C117.501 6.928 117.221 7.96 116.661 8.808C116.117 9.656 115.365 10.304 114.405 10.752C113.461 11.184 112.381 11.4 111.165 11.4H108.021V17.88H104.301ZM108.021 8.16H111.189C111.717 8.16 112.173 8.056 112.557 7.848C112.941 7.64 113.237 7.352 113.445 6.984C113.669 6.616 113.781 6.192 113.781 5.712C113.781 5.216 113.669 4.784 113.445 4.416C113.237 4.048 112.941 3.76 112.557 3.552C112.173 3.344 111.717 3.24 111.189 3.24H108.021V8.16Z" fill="white"/>
<path d="M119.623 17.88V4.776H122.983V7.92L122.743 7.464C123.031 6.36 123.503 5.616 124.159 5.232C124.831 4.832 125.623 4.632 126.535 4.632H127.303V7.752H126.175C125.295 7.752 124.583 8.024 124.039 8.568C123.495 9.096 123.223 9.848 123.223 10.824V17.88H119.623Z" fill="white"/>
<path d="M135.385 18.168C134.089 18.168 132.905 17.872 131.833 17.28C130.777 16.688 129.929 15.88 129.289 14.856C128.665 13.816 128.353 12.64 128.353 11.328C128.353 10 128.665 8.824 129.289 7.8C129.929 6.776 130.777 5.968 131.833 5.376C132.905 4.784 134.089 4.488 135.385 4.488C136.681 4.488 137.857 4.784 138.913 5.376C139.969 5.968 140.809 6.776 141.433 7.8C142.073 8.824 142.393 10 142.393 11.328C142.393 12.64 142.073 13.816 141.433 14.856C140.809 15.88 139.969 16.688 138.913 17.28C137.857 17.872 136.681 18.168 135.385 18.168ZM135.385 14.928C136.041 14.928 136.609 14.776 137.089 14.472C137.585 14.168 137.969 13.744 138.241 13.2C138.529 12.656 138.673 12.032 138.673 11.328C138.673 10.624 138.529 10.008 138.241 9.48C137.969 8.936 137.585 8.512 137.089 8.208C136.609 7.888 136.041 7.728 135.385 7.728C134.729 7.728 134.153 7.888 133.657 8.208C133.161 8.512 132.769 8.936 132.481 9.48C132.209 10.008 132.073 10.624 132.073 11.328C132.073 12.032 132.209 12.656 132.481 13.2C132.769 13.744 133.161 14.168 133.657 14.472C134.153 14.776 134.729 14.928 135.385 14.928Z" fill="white"/>
<rect x="6.52441" y="18.8418" width="7.24329" height="5.24219" fill="white"/>
<path fill-rule="evenodd" clip-rule="evenodd" d="M8.20915 0.83406C9.35147 -0.00588471 10.9071 -0.00588471 12.0495 0.83406L18.9374 5.89872C19.7681 6.50951 20.2586 7.47907 20.2586 8.51014V18.842H13.7759V10.1501L10.1293 7.46879L6.48276 10.1501V18.842H0V8.51014C0 7.47907 0.490538 6.50951 1.32122 5.89872L8.20915 0.83406Z" fill="#15B2F5"/>
</svg>
